<?xml version="1.0" encoding="UTF-8" standalone="no"?>
<!-- Created with Inkscape (http://www.inkscape.org/) -->

<svg
   xmlns:dc="http://purl.org/dc/elements/1.1/"
   xmlns:cc="http://creativecommons.org/ns#"
   xmlns:rdf="http://www.w3.org/1999/02/22-rdf-syntax-ns#"
   xmlns:svg="http://www.w3.org/2000/svg"
   xmlns="http://www.w3.org/2000/svg"
   xmlns:sodipodi="http://sodipodi.sourceforge.net/DTD/sodipodi-0.dtd"
   xmlns:inkscape="http://www.inkscape.org/namespaces/inkscape"
   width="134.16931mm"
   height="134.16931mm"
   viewBox="0 0 134.16931 134.16931"
   version="1.1"
   id="svg937"
   inkscape:version="0.92.3 (2405546, 2018-03-11)"
   sodipodi:docname="schedule.svg">
  <defs
     id="defs931" />
  <sodipodi:namedview
     id="base"
     pagecolor="#ffffff"
     bordercolor="#666666"
     borderopacity="1.0"
     inkscape:pageopacity="0.0"
     inkscape:pageshadow="2"
     inkscape:zoom="0.25"
     inkscape:cx="-29.42779"
     inkscape:cy="-249.48925"
     inkscape:document-units="mm"
     inkscape:current-layer="layer1"
     showgrid="false"
     fit-margin-top="0"
     fit-margin-left="0"
     fit-margin-right="0"
     fit-margin-bottom="0"
     inkscape:window-width="1842"
     inkscape:window-height="1051"
     inkscape:window-x="-9"
     inkscape:window-y="-9"
     inkscape:window-maximized="1" />
  <metadata
     id="metadata934">
    <rdf:RDF>
      <cc:Work
         rdf:about="">
        <dc:format>image/svg+xml</dc:format>
        <dc:type
           rdf:resource="http://purl.org/dc/dcmitype/StillImage" />
        <dc:title></dc:title>
      </cc:Work>
    </rdf:RDF>
  </metadata>
  <g
     inkscape:label="Layer 1"
     inkscape:groupmode="layer"
     id="layer1"
     transform="translate(0.80181122,6.8854561)">
    <g
       id="g1889">
      <path
         d="M 133.3675,60.1992 A 67.084656,67.084656 0 0 1 66.415151,127.28372 67.084656,67.084656 0 0 1 -0.80128934,60.463811 67.084656,67.084656 0 0 1 65.885928,-6.8842819 67.084656,67.084656 0 0 1 133.36541,59.669981"
         sodipodi:open="true"
         sodipodi:end="6.2752964"
         sodipodi:start="0"
         sodipodi:ry="67.084656"
         sodipodi:rx="67.084656"
         sodipodi:cy="60.1992"
         sodipodi:cx="66.282845"
         sodipodi:type="arc"
         id="path1721"
         style="opacity:1;fill:#00bff3;fill-opacity:1;stroke:none;stroke-width:0.5;stroke-linecap:butt;stroke-linejoin:round;stroke-miterlimit:4;stroke-dasharray:none;stroke-opacity:1" />
      <g
         transform="matrix(3.0427083,0,0,3.0427083,29.889856,24.360909)"
         id="g1862">
        <path
           inkscape:connector-curvature="0"
           d="M 9,11 H 7 v 2 h 2 z m 4,0 h -2 v 2 h 2 z m 4,0 h -2 v 2 h 2 z M 19,4 H 18 V 2 H 16 V 4 H 8 V 2 H 6 V 4 H 5 C 3.89,4 3.01,4.9 3.01,6 L 3,20 c 0,1.1 0.89,2 2,2 h 14 c 1.1,0 2,-0.9 2,-2 V 6 C 21,4.9 20.1,4 19,4 Z m 0,16 H 5 V 9 h 14 z"
           id="path1848" />
        <path
           style="fill:none"
           inkscape:connector-curvature="0"
           d="M 0,0 H 24 V 24 H 0 Z"
           id="path1850" />
      </g>
    </g>
  </g>
</svg>
