<?xml version="1.0" encoding="UTF-8" standalone="no"?>
<!-- Created with Inkscape (http://www.inkscape.org/) -->

<svg
   xmlns:dc="http://purl.org/dc/elements/1.1/"
   xmlns:cc="http://creativecommons.org/ns#"
   xmlns:rdf="http://www.w3.org/1999/02/22-rdf-syntax-ns#"
   xmlns:svg="http://www.w3.org/2000/svg"
   xmlns="http://www.w3.org/2000/svg"
   xmlns:sodipodi="http://sodipodi.sourceforge.net/DTD/sodipodi-0.dtd"
   xmlns:inkscape="http://www.inkscape.org/namespaces/inkscape"
   width="134.16931mm"
   height="134.16931mm"
   viewBox="0 0 134.16931 134.16931"
   version="1.1"
   id="svg937"
   inkscape:version="0.92.3 (2405546, 2018-03-11)"
   sodipodi:docname="sprint.svg">
  <defs
     id="defs931" />
  <sodipodi:namedview
     id="base"
     pagecolor="#ffffff"
     bordercolor="#666666"
     borderopacity="1.0"
     inkscape:pageopacity="0.0"
     inkscape:pageshadow="2"
     inkscape:zoom="0.35355339"
     inkscape:cx="-154.69671"
     inkscape:cy="-108.05756"
     inkscape:document-units="mm"
     inkscape:current-layer="layer1"
     showgrid="false"
     fit-margin-top="0"
     fit-margin-left="0"
     fit-margin-right="0"
     fit-margin-bottom="0"
     inkscape:window-width="1842"
     inkscape:window-height="1051"
     inkscape:window-x="-9"
     inkscape:window-y="-9"
     inkscape:window-maximized="1" />
  <metadata
     id="metadata934">
    <rdf:RDF>
      <cc:Work
         rdf:about="">
        <dc:format>image/svg+xml</dc:format>
        <dc:type
           rdf:resource="http://purl.org/dc/dcmitype/StillImage" />
        <dc:title></dc:title>
      </cc:Work>
    </rdf:RDF>
  </metadata>
  <g
     inkscape:label="Layer 1"
     inkscape:groupmode="layer"
     id="layer1"
     transform="translate(0.80181122,6.8854561)">
    <path
       style="opacity:1;fill:#00bff3;fill-opacity:1;stroke:none;stroke-width:0.5;stroke-linecap:butt;stroke-linejoin:round;stroke-miterlimit:4;stroke-dasharray:none;stroke-opacity:1"
       id="path1721"
       sodipodi:type="arc"
       sodipodi:cx="66.282845"
       sodipodi:cy="60.1992"
       sodipodi:rx="67.084656"
       sodipodi:ry="67.084656"
       sodipodi:start="0"
       sodipodi:end="6.2752964"
       sodipodi:open="true"
       d="M 133.3675,60.1992 A 67.084656,67.084656 0 0 1 66.415151,127.28372 67.084656,67.084656 0 0 1 -0.80128934,60.463811 67.084656,67.084656 0 0 1 65.885928,-6.8842819 67.084656,67.084656 0 0 1 133.36541,59.669981" />
    <path
       style="opacity:1;fill:#000000;fill-opacity:1;stroke:none;stroke-width:0.14206831;stroke-linecap:butt;stroke-linejoin:round;stroke-miterlimit:4;stroke-dasharray:none;stroke-opacity:1"
       d="m 89.437803,34.043357 c -0.384473,0.0032 -0.770274,0.04152 -0.856368,0.112962 -0.05993,0.04974 -0.220699,0.08175 -0.357141,0.07059 -0.136461,-0.01109 -0.32653,0.02244 -0.422792,0.07476 -0.09628,0.05238 -0.220813,0.07788 -0.276589,0.05648 -0.05579,-0.02139 -0.143368,0.01077 -0.194358,0.07227 -0.05096,0.06145 -0.136779,0.09472 -0.191042,0.07392 -0.05414,-0.0208 -0.145949,0.0098 -0.204323,0.0681 -0.05834,0.05839 -0.126014,0.08662 -0.150289,0.0623 -0.02428,-0.0243 -0.138387,0.0187 -0.253324,0.09552 -0.115084,0.07681 -0.235297,0.131672 -0.26746,0.122092 -0.03215,-0.0096 -0.07828,0.03311 -0.102225,0.09552 -0.02395,0.06241 -0.09033,0.113798 -0.147873,0.113798 -0.05754,0 -0.104637,0.03596 -0.104637,0.07974 0,0.0438 -0.03105,0.06034 -0.06815,0.03737 -0.03713,-0.02295 -0.171393,0.05515 -0.298191,0.1736 -0.126818,0.118444 -0.24647,0.199567 -0.266623,0.179407 -0.04036,-0.04041 -0.269949,0.167123 -0.269949,0.244199 0,0.05797 -0.19812,0.263301 -0.254167,0.263301 -0.05963,0 -0.421954,0.374422 -0.421954,0.436069 0,0.02956 -0.08631,0.147022 -0.191864,0.260808 -0.1056,0.113783 -0.171438,0.239879 -0.146265,0.280748 0.02522,0.04086 0.01125,0.07476 -0.03325,0.07476 -0.04372,0 -0.07972,0.05094 -0.07972,0.112963 0,0.06203 -0.03343,0.112143 -0.07394,0.112143 -0.09515,0 -0.395081,0.586931 -0.343035,0.671126 0.02186,0.03525 -0.0096,0.103769 -0.06815,0.15284 -0.05915,0.04905 -0.09162,0.132025 -0.07137,0.184393 0.02011,0.05237 -0.01125,0.135321 -0.06895,0.183564 -0.06108,0.05068 -0.09033,0.166301 -0.06976,0.274099 0.02348,0.123202 -0.0034,0.201608 -0.07972,0.230908 -0.08535,0.03273 -0.104637,0.111484 -0.07394,0.300679 0.02429,0.149996 0.0034,0.301826 -0.04903,0.365468 -0.135175,0.1629 -0.183975,1.151733 -0.07635,1.546589 0.05063,0.186055 0.09933,0.46851 0.108815,0.627936 0.0096,0.15943 0.06028,0.31632 0.112995,0.348852 0.05931,0.03663 0.07812,0.130643 0.04903,0.246692 -0.03007,0.119858 -0.008,0.219498 0.0606,0.27659 0.05915,0.0491 0.08889,0.137378 0.06638,0.196024 -0.0225,0.05865 0.01446,0.127927 0.08133,0.15366 0.06703,0.02573 0.113477,0.08509 0.103029,0.132073 -0.02522,0.113766 0.174603,0.597576 0.274929,0.665313 0.04372,0.02949 0.07956,0.08043 0.07972,0.112963 8.26e-4,0.106372 0.348674,0.622953 0.419447,0.622953 0.03793,0 0.06895,0.03674 0.06895,0.0814 0,0.189627 1.353327,1.396807 1.45356,1.296575 0.02734,-0.02737 0.04983,0.0055 0.04983,0.07308 0,0.07839 0.041,0.107336 0.112994,0.07974 0.06204,-0.02382 0.112995,-0.0067 0.112995,0.0382 0,0.105086 0.566005,0.395838 0.635411,0.326425 0.02891,-0.0289 0.08438,0.0053 0.123758,0.07559 0.0394,0.07027 0.115891,0.110535 0.170281,0.0897 0.05433,-0.02084 0.140001,0.01254 0.191029,0.07392 0.05096,0.06143 0.14145,0.09261 0.201012,0.06977 0.05948,-0.02284 0.163679,0.004 0.230905,0.05981 0.06719,0.05581 0.199742,0.09138 0.294872,0.0789 0.09515,-0.01254 0.268353,0.02921 0.384561,0.0922 0.299619,0.162588 1.770767,0.163557 2.247624,0.0016 0.192802,-0.06545 0.415948,-0.102273 0.495878,-0.08139 0.08728,0.02284 0.162598,-0.0063 0.188538,-0.07392 0.02828,-0.0739 0.101904,-0.09842 0.212635,-0.07061 0.102387,0.0257 0.205784,-0.0016 0.261636,-0.06894 0.05077,-0.06114 0.117499,-0.0949 0.148681,-0.07558 0.07908,0.04889 0.906481,-0.365244 1.1022,-0.551525 0.08857,-0.08434 0.181052,-0.132925 0.205155,-0.108815 0.02408,0.02411 0.06526,-0.01174 0.0913,-0.07974 0.02599,-0.06794 0.08921,-0.123763 0.140319,-0.123763 0.103512,0 1.084698,-0.896811 1.110511,-1.015001 0.0097,-0.04136 0.07587,-0.143228 0.147874,-0.225924 0.07185,-0.0827 0.124248,-0.16705 0.117175,-0.187718 -0.0064,-0.02067 0.07024,-0.13299 0.171933,-0.250013 0.101739,-0.117029 0.185227,-0.245346 0.185227,-0.284897 0,-0.03954 0.0373,-0.09591 0.0831,-0.125419 0.09435,-0.06094 0.294236,-0.611312 0.269109,-0.7409 -0.0097,-0.04698 0.03177,-0.103415 0.0913,-0.126255 0.06397,-0.02454 0.09322,-0.101454 0.07056,-0.187719 -0.02103,-0.0803 0.0081,-0.189818 0.06558,-0.243369 0.05961,-0.05572 0.09098,-0.188743 0.07313,-0.310642 -0.01716,-0.117157 0.008,-0.260457 0.0556,-0.318124 0.123765,-0.149223 0.128264,-2.264409 0.0051,-2.412909 -0.05243,-0.06309 -0.07056,-0.19152 -0.04321,-0.300678 0.03216,-0.128184 0.01284,-0.203202 -0.05643,-0.23008 -0.05726,-0.02199 -0.09837,-0.114345 -0.0913,-0.205158 0.0064,-0.09081 -0.03298,-0.220205 -0.08888,-0.287389 -0.05592,-0.06719 -0.0921,-0.151522 -0.08053,-0.187718 0.01125,-0.03618 -0.02809,-0.184203 -0.08808,-0.328918 -0.103347,-0.24934 -0.15639,-0.33285 -0.346357,-0.548202 -0.04467,-0.05062 -0.06687,-0.133905 -0.04982,-0.185223 0.01703,-0.05132 -0.0051,-0.09387 -0.04823,-0.09387 -0.04372,0 -0.130996,-0.09906 -0.193539,-0.220106 -0.120072,-0.232346 -1.283849,-1.433628 -1.388771,-1.433628 -0.03374,0 -0.103353,-0.05056 -0.154464,-0.112126 -0.05109,-0.06158 -0.119583,-0.09557 -0.152056,-0.07558 -0.03235,0.01998 -0.07908,-0.01617 -0.10383,-0.08058 -0.02472,-0.06441 -0.07876,-0.09633 -0.12039,-0.07059 -0.04162,0.02573 -0.07554,0.01141 -0.07554,-0.03239 0,-0.0438 -0.06767,-0.07974 -0.150283,-0.07974 -0.08358,0 -0.150283,-0.05032 -0.150283,-0.112962 0,-0.103978 -0.181922,-0.151748 -0.440235,-0.11629 -0.05592,0.0077 -0.08101,-0.01921 -0.05643,-0.05897 0.05529,-0.08943 -0.143051,-0.172554 -0.283242,-0.118781 -0.05675,0.02174 -0.123599,-0.0135 -0.148675,-0.0789 -0.03133,-0.08168 -0.100621,-0.105167 -0.221761,-0.07476 -0.110425,0.02771 -0.210887,0.0021 -0.269115,-0.0681 -0.06446,-0.07765 -0.173636,-0.09903 -0.353837,-0.06977 -0.174183,0.02827 -0.302631,0.0046 -0.389569,-0.07061 -0.08084,-0.07008 -0.464396,-0.102016 -0.848869,-0.09885 z m -24.115806,0.32975 c -0.334789,0.0072 -0.66588,0.03693 -0.723454,0.08472 -0.05738,0.04761 -0.149963,0.07598 -0.205995,0.06312 -0.131639,-0.03018 -0.735911,0.242072 -0.735911,0.331408 0,0.03751 -0.03424,0.04714 -0.07554,0.0216 -0.04131,-0.02556 -0.07474,0.0061 -0.07474,0.07059 0,0.06447 -0.04211,0.108349 -0.09387,0.09801 -0.05176,-0.01029 -0.08583,0.0239 -0.07554,0.07559 0.0096,0.05166 -0.008,0.08508 -0.04066,0.07476 -0.03263,-0.01029 -0.142409,0.06608 -0.244185,0.169441 -0.207713,0.210907 -0.623463,0.827281 -0.558174,0.827281 0.02331,0 -0.07699,0.122558 -0.222597,0.27244 -0.145623,0.149883 -0.284383,0.336109 -0.308991,0.413644 -0.02459,0.07754 -0.07988,0.140367 -0.12296,0.140367 -0.04291,0 -0.05867,0.05094 -0.03488,0.112963 0.02684,0.06992 -2.41e-4,0.112962 -0.07136,0.112962 -0.06317,0 -0.09451,0.03342 -0.06896,0.07476 0.02556,0.04138 0.01125,0.07558 -0.03327,0.07558 -0.04372,0 -0.07972,0.04706 -0.07972,0.104653 0,0.05759 -0.05015,0.124037 -0.112191,0.147841 -0.06204,0.02381 -0.112995,0.09144 -0.112995,0.150349 0,0.05889 -0.05095,0.126528 -0.112994,0.150333 -0.06204,0.0238 -0.112995,0.09533 -0.112995,0.158642 0,0.06331 -0.0352,0.114618 -0.07892,0.114618 -0.04388,0 -0.05882,0.03425 -0.03327,0.07558 0.02556,0.04133 -0.008,0.07476 -0.07554,0.07476 -0.06686,4e-6 -0.102547,0.03154 -0.07892,0.06977 0.02363,0.03824 -0.0577,0.180472 -0.181065,0.315631 -0.123442,0.135143 -0.209096,0.26103 -0.190226,0.279913 0.01897,0.01889 -0.04934,0.112481 -0.152052,0.207651 -0.102708,0.09517 -0.186884,0.208352 -0.186884,0.251674 0,0.04335 -0.02829,0.0789 -0.06317,0.0789 -0.03471,0 -0.155749,0.168699 -0.268278,0.375436 -0.112512,0.206741 -0.241741,0.376262 -0.287388,0.376262 -0.04565,0 -0.06156,0.02155 -0.03488,0.04817 0.02668,0.02663 -0.0434,0.157083 -0.156072,0.289881 -0.273838,0.322493 -0.45823,0.58515 -0.475107,0.676944 -0.008,0.04136 -0.12746,0.207955 -0.266622,0.370448 -0.139033,0.162497 -0.25251,0.336083 -0.25251,0.386236 0,0.05015 -0.05336,0.11142 -0.117977,0.13622 -0.06461,0.0248 -0.09628,0.07964 -0.07056,0.121273 0.02572,0.04164 -0.008,0.07558 -0.07474,0.07558 -0.06686,0 -0.10319,0.02978 -0.08053,0.06645 0.02266,0.03666 -0.0096,0.108381 -0.07056,0.159478 -0.06156,0.0511 -0.112191,0.139901 -0.112191,0.196853 0,0.05696 -0.03423,0.103833 -0.07554,0.103833 -0.04131,0 -0.07474,0.0501 -0.07474,0.112127 0,0.06203 -0.027,0.112962 -0.05979,0.112962 -0.0659,0 -0.522491,0.582986 -0.740893,0.94606 -0.07667,0.127364 -0.303672,0.453729 -0.505004,0.725949 -0.201349,0.272223 -0.366131,0.523592 -0.366308,0.558166 -1.61e-4,0.03458 -0.08117,0.137361 -0.17941,0.228417 -0.09821,0.09106 -0.178573,0.192498 -0.178573,0.225925 0,0.0334 -0.0876,0.155621 -0.195192,0.271607 -0.10753,0.115984 -0.176195,0.230798 -0.152053,0.254996 0.02427,0.02419 -0.04018,0.122446 -0.142891,0.21762 -0.102707,0.09517 -0.186063,0.21038 -0.186063,0.256653 0,0.04628 -0.04934,0.133264 -0.109619,0.193533 -0.06043,0.06026 -0.08969,0.163418 -0.06477,0.228416 0.02491,0.065 0.0032,0.143984 -0.04903,0.17609 -0.09708,0.05997 -0.138551,1.018412 -0.04822,1.108861 0.02524,0.02527 0.04565,0.104893 0.04565,0.177745 0,0.07286 0.05192,0.184855 0.115405,0.248353 0.06349,0.0635 0.114281,0.133167 0.112995,0.155316 -0.0096,0.155122 0.01125,0.191039 0.114602,0.191039 0.06445,0 0.100779,0.02584 0.08133,0.05732 -0.01945,0.03147 0.0048,0.107047 0.0524,0.168611 0.151892,0.194784 0.648859,0.53558 0.718488,0.492545 0.03681,-0.02271 0.08728,0.01173 0.112191,0.07641 0.02877,0.07506 0.09644,0.100972 0.186883,0.07227 0.0823,-0.02614 0.157195,-0.0043 0.178573,0.0515 0.04822,0.125628 1.201407,0.119424 1.243422,-0.0066 0.01607,-0.04707 0.110262,-0.08556 0.210141,-0.08556 0.09997,0 0.181081,-0.03512 0.181081,-0.0789 0,-0.04367 0.02797,-0.0627 0.06236,-0.04154 0.0667,0.04123 0.643683,-0.401208 0.591381,-0.453511 -0.0172,-0.01713 0.250549,-0.323471 0.594708,-0.680268 0.344176,-0.356791 0.607695,-0.677679 0.585579,-0.713486 -0.02218,-0.03581 0.0048,-0.05621 0.05899,-0.04486 0.05481,0.01141 0.09097,-0.02141 0.08053,-0.0731 -0.0096,-0.05171 0.02636,-0.09385 0.08133,-0.09385 0.05497,0 0.143534,-0.08041 0.196029,-0.178581 0.05256,-0.09817 0.260594,-0.338902 0.46265,-0.534908 0.202041,-0.196003 0.348033,-0.387634 0.324759,-0.425269 -0.0233,-0.03764 0.0032,-0.0587 0.05738,-0.04735 0.05481,0.01141 0.09081,-0.02141 0.08053,-0.0731 -0.0096,-0.05169 0.0344,-0.09469 0.09885,-0.09469 0.06445,0 0.09612,-0.03341 0.07056,-0.07476 -0.02556,-0.04138 0.0064,-0.07559 0.07056,-0.07559 0.06445,0 0.117173,-0.03055 0.117173,-0.0681 0,-0.03755 0.149481,-0.221514 0.331414,-0.408659 0.181884,-0.187149 0.311611,-0.35869 0.288224,-0.382079 -0.02331,-0.02339 -0.0016,-0.04319 0.04903,-0.04319 0.05063,0 0.0712,-0.03342 0.04565,-0.07476 -0.02556,-0.04137 0.0096,-0.07559 0.07811,-0.07559 0.06831,0 0.142087,-0.06764 0.163626,-0.150333 0.02154,-0.0827 0.07185,-0.150348 0.111226,-0.150348 0.09901,0 0.286569,-0.196352 0.286569,-0.299849 0,-0.04674 0.03343,-0.06376 0.07474,-0.0382 0.0413,0.02554 0.07554,0.01221 0.07554,-0.0299 0,-0.08329 0.148678,-0.255728 0.919483,-1.063176 0.278581,-0.291836 0.600093,-0.65506 0.714325,-0.806519 0.114281,-0.151458 0.393874,-0.466581 0.621294,-0.701032 0.452733,-0.466734 0.546086,-0.48024 0.920302,-0.130402 0.270753,0.253107 0.611617,0.511208 0.676955,0.512484 0.03102,5.53e-4 0.05642,0.04547 0.05642,0.100505 0,0.05503 0.09306,0.148356 0.206815,0.206822 0.113637,0.05848 0.316641,0.222807 0.451013,0.365465 0.134372,0.142649 0.2442,0.240095 0.2442,0.21679 0,-0.02329 0.12071,0.0717 0.268294,0.210972 0.147713,0.139258 0.300472,0.253338 0.338887,0.253338 0.03841,0 0.06976,0.0565 0.06976,0.125419 0,0.06889 0.01993,0.105504 0.04404,0.08139 0.02411,-0.02411 0.101583,0.01254 0.172771,0.0814 0.238847,0.231167 0.638106,0.539063 0.699376,0.539063 0.03343,0 0.0606,0.0429 0.0606,0.09552 0,0.05262 0.115084,0.157211 0.255001,0.232568 0.139998,0.07535 0.379408,0.268792 0.532408,0.430253 0.153017,0.161467 0.312383,0.294037 0.353836,0.294037 0.04147,0 0.265449,0.186226 0.498365,0.413638 0.232933,0.227414 0.449182,0.412813 0.48009,0.412813 0.03086,0 0.231037,0.170415 0.445212,0.377926 0.214175,0.207514 0.405784,0.360854 0.425265,0.341377 0.05192,-0.05196 0.242544,0.157115 0.242544,0.265793 0,0.05116 0.01913,0.07384 0.04227,0.05066 0.02314,-0.02318 0.117656,0.03012 0.210141,0.118781 0.289366,0.2772 0.686374,0.610339 0.706015,0.592222 0.0096,-0.0096 0.01704,0.0021 0.01446,0.02575 -0.0016,0.02363 0.141927,0.146829 0.319793,0.274099 0.177867,0.127268 0.475927,0.361971 0.66199,0.521619 0.186064,0.159639 0.390563,0.334878 0.455177,0.388722 0.06462,0.05384 0.157678,0.08448 0.206815,0.06812 0.04903,-0.01638 0.08969,0.0019 0.08969,0.04154 0,0.03962 0.10978,0.09417 0.2442,0.121272 0.191801,0.03865 0.21977,0.06492 0.131318,0.121272 -0.0868,0.05527 -0.06076,0.07382 0.112995,0.0814 0.323665,0.01414 0.359654,0.02202 0.526607,0.112962 0.178716,0.09739 2.132413,0.09175 2.291634,-0.0066 0.05867,-0.03626 0.206512,-0.07723 0.328088,-0.09054 0.121674,-0.01334 0.261737,-0.07982 0.31148,-0.147842 0.04967,-0.06805 0.129229,-0.0992 0.176921,-0.06977 0.05192,0.03209 0.08631,0.0034 0.08631,-0.07059 0,-0.06791 0.04002,-0.109892 0.08808,-0.09385 0.09853,0.03283 0.599285,-0.436362 0.920318,-0.862171 0.131479,-0.174339 0.174684,-0.282404 0.113799,-0.282404 -0.06767,0 -0.05931,-0.02925 0.02573,-0.09385 0.184779,-0.140303 0.289817,-0.490804 0.239219,-0.798214 -0.03359,-0.203832 -0.02475,-0.244611 0.03488,-0.160314 0.05867,0.08299 0.07972,-0.06165 0.08053,-0.549032 8.26e-4,-0.478781 -0.0225,-0.648149 -0.08471,-0.609662 -0.05995,0.037 -0.07217,-0.0027 -0.03984,-0.131237 0.05384,-0.214375 -0.07313,-0.740073 -0.178588,-0.740073 -0.03938,0 -0.07136,-0.06764 -0.07136,-0.150333 0,-0.0827 -0.03666,-0.150348 -0.08133,-0.150348 -0.04484,0 -0.06783,-0.03977 -0.05143,-0.08887 0.03054,-0.09147 -0.02284,-0.169457 -0.401187,-0.585579 -0.119584,-0.131591 -0.217615,-0.263115 -0.217615,-0.292373 0,-0.02925 -0.107851,-0.116788 -0.239219,-0.194361 -0.131317,-0.07757 -0.292078,-0.185984 -0.357159,-0.241706 -0.0651,-0.05571 -0.139836,-0.0929 -0.166952,-0.08223 -0.027,0.01061 -0.135497,-0.074 -0.240873,-0.187715 -0.10544,-0.113701 -0.231839,-0.205992 -0.28075,-0.205992 -0.04886,0 -0.1675,-0.08519 -0.263297,-0.188548 -0.0958,-0.103367 -0.209194,-0.187714 -0.252512,-0.187714 -0.0434,0 -0.07892,-0.03596 -0.07892,-0.07974 0,-0.04377 -0.03343,-0.05878 -0.07474,-0.03322 -0.04131,0.02556 -0.07554,-0.0061 -0.07554,-0.07059 0,-0.06445 -0.03857,-0.117109 -0.08647,-0.117109 -0.04774,0 -0.200593,-0.08641 -0.338887,-0.191874 -0.13823,-0.105488 -0.250839,-0.168373 -0.250839,-0.139547 0,0.02882 -0.08294,-0.03677 -0.184391,-0.146186 -0.101422,-0.10941 -0.212472,-0.199345 -0.245856,-0.199345 -0.03343,0 -0.153659,-0.08636 -0.267458,-0.191869 -0.113798,-0.105504 -0.234122,-0.174246 -0.267457,-0.153659 -0.03327,0.02059 -0.108173,-0.02916 -0.166117,-0.109636 -0.05803,-0.08048 -0.14498,-0.146185 -0.193537,-0.146185 -0.04854,0 -0.107369,-0.05012 -0.131158,-0.112143 -0.02379,-0.06203 -0.07667,-0.112962 -0.117173,-0.112962 -0.04051,0 -0.164236,-0.08429 -0.274932,-0.186885 -0.110744,-0.102595 -0.230474,-0.167683 -0.266622,-0.14535 -0.03616,0.02234 -0.06558,0.0048 -0.06558,-0.03904 0,-0.0438 -0.03022,-0.07974 -0.06735,-0.07974 -0.03697,0 -0.177383,-0.102322 -0.311466,-0.227582 -0.13405,-0.125258 -0.258923,-0.212852 -0.277423,-0.194365 -0.0344,0.0344 -0.123442,-0.03355 -0.608001,-0.461813 -0.152374,-0.134629 -0.319278,-0.228749 -0.370455,-0.209315 -0.05111,0.01938 -0.08455,0.01045 -0.07474,-0.0191 0.0096,-0.02952 -0.01607,-0.06927 -0.05738,-0.08888 -0.09065,-0.04296 -0.310341,-0.217564 -0.500037,-0.397028 -0.07651,-0.07236 -0.172947,-0.131237 -0.214288,-0.131237 -0.0413,0 -0.140319,-0.05888 -0.220122,-0.131238 -0.267265,-0.242553 -0.415267,-0.357809 -0.436065,-0.338884 -0.01125,0.01029 -0.08937,-0.04952 -0.173591,-0.133729 -0.08424,-0.08418 -0.191359,-0.12992 -0.23757,-0.101342 -0.05111,0.0316 -0.06252,0.01788 -0.02989,-0.03488 0.02958,-0.04776 0.01286,-0.08721 -0.03649,-0.08721 -0.04935,0 -0.167499,-0.08435 -0.263296,-0.187715 -0.0958,-0.103367 -0.21001,-0.187718 -0.253327,-0.187718 -0.04324,0 -0.07892,-0.0262 -0.07892,-0.05814 0,-0.03194 -0.124889,-0.125065 -0.277407,-0.206822 -0.152529,-0.08177 -0.337869,-0.213879 -0.412818,-0.294034 -0.0749,-0.08016 -0.136301,-0.116756 -0.13614,-0.08057 0,0.0362 -0.09306,-0.01816 -0.20683,-0.121273 -0.307866,-0.279184 -0.770806,-0.608029 -0.770806,-0.547369 0,0.02921 -0.07635,-0.03423 -0.169444,-0.141203 -0.09306,-0.106967 -0.219544,-0.205266 -0.28157,-0.218449 -0.06204,-0.01318 -0.188539,-0.101695 -0.28157,-0.196853 -0.09306,-0.09515 -0.170665,-0.146089 -0.171935,-0.112962 -0.0013,0.03314 -0.04935,-0.0013 -0.106405,-0.07641 -0.0569,-0.07511 -0.131318,-0.142761 -0.166116,-0.150332 -0.03472,-0.0076 -0.05513,-0.03877 -0.04484,-0.06977 0.0096,-0.03099 -0.02781,-0.05648 -0.08471,-0.05648 -0.0569,0 -0.14498,-0.05056 -0.196012,-0.112126 -0.05111,-0.06158 -0.119745,-0.09557 -0.152053,-0.07558 -0.03231,0.01998 -0.08037,-0.01868 -0.106244,-0.08638 -0.02604,-0.06772 -0.06799,-0.102321 -0.09387,-0.07641 -0.02588,0.02593 -0.129229,-0.04081 -0.229252,-0.148677 -0.09998,-0.107867 -0.263166,-0.196018 -0.362981,-0.196018 -0.09981,0 -0.163561,-0.02943 -0.141122,-0.06563 0.04179,-0.06772 0.03022,-0.07294 -0.239218,-0.102162 -0.08744,-0.0095 -0.199259,-0.04274 -0.248363,-0.0731 -0.07281,-0.04499 -0.411907,-0.06032 -0.746712,-0.05316 z m 17.50501,11.893438 -0.01125,0.618802 c -0.0064,0.340233 -0.0034,0.711638 0.0048,0.825619 0.0096,0.113975 -0.03666,0.260022 -0.101422,0.324765 -0.07233,0.0722 -0.101261,0.184182 -0.07474,0.289882 0.02972,0.118733 0.0048,0.18745 -0.08053,0.220111 -0.08374,0.03212 -0.108011,0.09617 -0.07554,0.198515 0.03181,0.100426 0.0096,0.166043 -0.06896,0.196026 -0.06461,0.0248 -0.09564,0.08046 -0.06895,0.123763 0.02666,0.04329 3.53e-4,0.115727 -0.05818,0.161139 -0.09226,0.07164 -0.206026,0.275187 -0.299012,0.53408 -0.05545,0.154367 -0.334258,0.443028 -1.314849,1.36219 -0.251402,0.235664 -0.469532,0.364193 -0.578924,0.340548 -0.03215,-0.0069 -0.07667,0.03573 -0.09965,0.09552 -0.023,0.05978 -0.08969,0.09048 -0.147874,0.06812 -0.05818,-0.02236 -0.126656,0.01366 -0.152052,0.07974 -0.02539,0.06606 -0.07153,0.104428 -0.102225,0.08556 -0.09242,-0.05709 -0.604676,0.111885 -0.604676,0.199346 0,0.05086 -0.09773,0.06524 -0.259147,0.03904 -0.165135,-0.02679 -0.269432,-0.01 -0.288225,0.04652 -0.04388,0.131865 -1.491109,0.168295 -1.719349,0.04319 -0.09724,-0.05333 -0.25447,-0.0879 -0.349688,-0.07641 -0.09515,0.01141 -0.214304,-0.0127 -0.26413,-0.05399 -0.07522,-0.06249 -0.549414,-0.255971 -0.8414,-0.34304 -0.215863,-0.06437 -0.384841,-0.160734 -0.466814,-0.265795 -0.05031,-0.06445 -0.09338,-0.09163 -0.09467,-0.06063 -0.0013,0.031 -0.07104,-0.01302 -0.155267,-0.09718 -0.08422,-0.08418 -0.1905,-0.129904 -0.236726,-0.101325 -0.05111,0.0316 -0.06332,0.01787 -0.0307,-0.03488 0.02957,-0.04776 0.01286,-0.08638 -0.03568,-0.08638 -0.09065,0 -0.44505,-0.370364 -0.445211,-0.465138 -4.8e-5,-0.02823 -0.05963,-0.07111 -0.132122,-0.09552 -0.07233,-0.0244 -0.282229,-0.178587 -0.466797,-0.343038 -0.184569,-0.164448 -0.364573,-0.299018 -0.399532,-0.299018 -0.03488,0 -0.04211,-0.03425 -0.01655,-0.07559 0.02556,-0.04138 0.0064,-0.07476 -0.04147,-0.07476 -0.04822,0 -0.154303,-0.08479 -0.23589,-0.188547 -0.08165,-0.103768 -0.180245,-0.169508 -0.219287,-0.14535 -0.03906,0.02416 -0.06204,0.01662 -0.05063,-0.01744 0.01126,-0.03407 0.0048,-0.06871 -0.01655,-0.07641 -0.02073,-0.0077 -0.307593,-0.269443 -0.637061,-0.582257 -0.329484,-0.312806 -0.650996,-0.585843 -0.714324,-0.606338 -0.06333,-0.02048 -0.228882,-0.171381 -0.367964,-0.335567 l -0.252494,-0.299019 -1.173649,1.181952 c -0.64549,0.649899 -1.166342,1.206599 -1.157019,1.237599 0.0096,0.031 -0.02025,0.05648 -0.06638,0.05648 -0.04613,0 -0.68901,0.617561 -1.42865,1.372158 -0.739641,0.7546 -1.380254,1.405582 -1.422831,1.446919 -0.0426,0.04134 -0.186,0.190329 -0.318941,0.330579 -0.132925,0.140255 -0.384358,0.390448 -0.559009,0.555674 -0.17462,0.165229 -0.29676,0.334249 -0.27077,0.376266 0.02604,0.04202 0.01446,0.05654 -0.02572,0.03157 -0.07731,-0.04774 -1.152882,1.027074 -1.152882,1.152048 0,0.03977 -0.02556,0.06477 -0.05642,0.05483 -0.07362,-0.02361 -0.811855,0.714642 -0.788245,0.788243 0.0096,0.031 -0.018,0.05648 -0.06236,0.05648 -0.106083,0 -0.295683,0.192146 -0.295683,0.299851 0,0.04674 -0.03423,0.06376 -0.07554,0.0382 -0.04131,-0.02556 -0.07474,0.0087 -0.07474,0.07558 0,0.06688 -0.03423,0.100313 -0.07554,0.07476 -0.04131,-0.02556 -0.07474,0.0069 -0.07474,0.07143 0,0.06447 -0.03584,0.117109 -0.07892,0.117109 -0.08358,0 -0.987617,0.9007 -0.907846,0.904528 0.02604,0.0013 -0.01286,0.03711 -0.08631,0.07974 -0.07313,0.04263 -0.116049,0.104589 -0.09548,0.137877 0.02058,0.03329 -0.02958,0.121239 -0.111387,0.195194 -0.08165,0.07395 -0.148677,0.179443 -0.148677,0.235059 0,0.05561 -0.03729,0.101342 -0.0831,0.101342 -0.04597,0 -0.06494,0.04816 -0.04243,0.107144 0.02266,0.059 -0.0032,0.145141 -0.05899,0.191034 -0.05529,0.04589 -0.08358,0.149738 -0.06236,0.23091 0.0262,0.10036 0.0013,0.147857 -0.07892,0.147857 -0.08696,0 -0.110745,0.0583 -0.08969,0.224261 0.01607,0.123507 -0.0048,0.244412 -0.04404,0.26912 -0.03986,0.02469 -0.05256,0.110166 -0.02748,0.189377 0.02556,0.08051 0.01125,0.143695 -0.03407,0.143695 -0.05095,0 -0.08053,0.248523 -0.08053,0.681095 0,0.374568 0.02942,0.663085 0.06477,0.641225 0.03536,-0.02184 0.06783,0.05203 0.07233,0.164462 0.01607,0.390159 0.06252,0.608862 0.157035,0.722626 0.05224,0.06289 0.07249,0.150075 0.04565,0.193533 -0.02684,0.04345 0.0048,0.0998 0.06895,0.124583 0.06462,0.0248 0.117978,0.108607 0.117978,0.186885 0,0.07828 0.03488,0.142858 0.07812,0.142858 0.04308,0 0.07024,0.04218 0.05979,0.09385 -0.06043,0.297745 0.823783,1.263482 1.613025,1.761716 0.157357,0.0993 0.305037,0.229033 0.328086,0.289052 0.02298,0.06 0.06815,0.09308 0.100458,0.07308 0.03231,-0.01999 0.201574,0.09795 0.376273,0.262472 0.174667,0.164523 0.347856,0.280984 0.384567,0.258317 0.03665,-0.02268 0.06719,0.0032 0.06815,0.05732 0.0014,0.100007 0.685682,0.586404 0.824796,0.586404 0.04179,0 0.06767,0.02548 0.05738,0.05648 -0.0096,0.03102 0.01286,0.0732 0.0532,0.09385 0.03986,0.02067 0.173253,0.129936 0.296518,0.242537 0.123281,0.112593 0.239249,0.190181 0.257492,0.171936 0.01832,-0.01826 0.155428,0.08414 0.304828,0.227587 0.394019,0.378125 0.960004,0.787591 1.014171,0.733421 0.02572,-0.02565 0.04645,0.0025 0.04645,0.06313 0,0.06053 0.184889,0.226855 0.410316,0.369618 0.225426,0.142762 0.411522,0.303868 0.413644,0.357993 0.0016,0.05423 0.03311,0.07998 0.06976,0.0573 0.03665,-0.02265 0.108333,0.009 0.159446,0.07061 0.05111,0.06156 0.126335,0.112127 0.166952,0.112127 0.04066,0 0.142087,0.08633 0.225089,0.191868 0.0831,0.105553 0.168881,0.173371 0.191046,0.151169 0.02218,-0.02218 0.11203,0.03555 0.199339,0.12791 0.08744,0.09236 0.30245,0.26524 0.4776,0.384571 0.175149,0.119327 0.31812,0.249735 0.31812,0.289881 0,0.04015 0.05095,0.05372 0.112995,0.0299 0.06204,-0.02384 0.112673,-0.0022 0.112994,0.04817 5.53e-4,0.100924 0.518763,0.47934 0.615475,0.449358 0.03327,-0.01029 0.06059,0.03355 0.06059,0.09802 0,0.06442 0.03424,0.09616 0.07554,0.07059 0.04131,-0.02556 0.07474,0.0061 0.07474,0.07061 0,0.06445 0.04581,0.117944 0.101422,0.117944 0.05561,0 0.159124,0.06355 0.230071,0.14204 0.124568,0.137602 0.111066,0.15202 -0.382911,0.392877 -0.281683,0.137361 -0.549462,0.251637 -0.595544,0.253337 -0.04613,0.0019 -0.137747,0.04755 -0.203487,0.102161 -0.0659,0.05479 -0.150927,0.08025 -0.18939,0.05648 -0.03841,-0.02377 -0.110423,0.0048 -0.159446,0.06396 -0.04903,0.0591 -0.133247,0.09036 -0.186883,0.06977 -0.05369,-0.02059 -0.144016,0.0074 -0.200996,0.06146 -0.05706,0.05405 -0.188185,0.109603 -0.291551,0.123763 -0.103351,0.01415 -0.245052,0.07648 -0.314794,0.138712 -0.06976,0.06222 -0.159285,0.09322 -0.19852,0.06894 -0.03922,-0.02427 -0.111226,0.0048 -0.16025,0.06395 -0.04903,0.0591 -0.134532,0.08999 -0.18939,0.06894 -0.05481,-0.02104 -0.121353,-0.0018 -0.148677,0.04237 -0.02733,0.04415 -0.111709,0.07974 -0.186883,0.07974 -0.07522,0 -0.172144,0.04356 -0.21596,0.09636 -0.04372,0.05278 -0.172529,0.103607 -0.285733,0.112962 -0.113155,0.0093 -0.25881,0.05893 -0.323939,0.11047 -0.233206,0.184598 -0.453055,0.2784 -0.557322,0.238382 -0.05834,-0.02237 -0.125692,0.01206 -0.150284,0.07641 -0.02475,0.06441 -0.101422,0.11711 -0.170263,0.11711 -0.24584,0 -0.701418,0.174135 -0.654517,0.250012 0.02877,0.04649 -0.0015,0.05733 -0.07731,0.02824 -0.06879,-0.02639 -0.125371,-0.01286 -0.125371,0.0299 0,0.04287 -0.06332,0.05793 -0.141283,0.03322 -0.08921,-0.02834 -0.158161,-0.0019 -0.186047,0.07059 -0.02427,0.06325 -0.110263,0.114618 -0.191866,0.114618 -0.08149,0 -0.170392,0.03641 -0.197684,0.08058 -0.02733,0.04418 -0.09467,0.06257 -0.149481,0.04153 -0.05481,-0.02104 -0.139998,0.01109 -0.189374,0.07061 -0.0495,0.05957 -0.170811,0.10798 -0.269114,0.10798 -0.09837,0 -0.178589,0.02665 -0.178589,0.05897 0,0.03233 -0.09162,0.06632 -0.203503,0.07558 -0.11187,0.0093 -0.237128,0.05025 -0.278243,0.09136 -0.04115,0.0411 -0.136943,0.07476 -0.212633,0.07476 -0.0757,0 -0.157195,0.05272 -0.181916,0.117125 -0.02572,0.06707 -0.09419,0.09814 -0.159446,0.07308 -0.06268,-0.02405 -0.171838,0.0092 -0.243364,0.07392 -0.07153,0.06477 -0.159768,0.112946 -0.196029,0.106324 -0.145141,-0.02657 -0.260643,0.0087 -0.223433,0.06894 0.0217,0.0351 -0.06847,0.06677 -0.200176,0.07059 -0.131639,0.0037 -0.281264,0.06402 -0.332249,0.133728 -0.0532,0.07284 -0.143212,0.107674 -0.211796,0.0814 -0.0712,-0.02733 -0.136622,0.0012 -0.163641,0.07143 -0.02764,0.07188 -0.101743,0.102836 -0.190195,0.07974 -0.08599,-0.0225 -0.161503,0.0077 -0.186899,0.07392 -0.02347,0.06119 -0.08824,0.09356 -0.143694,0.07227 -0.05545,-0.02129 -0.150767,0.01125 -0.211796,0.07227 -0.06092,0.061 -0.137908,0.106164 -0.171099,0.100506 -0.164654,-0.02792 -0.325145,0.01946 -0.433591,0.12791 -0.06606,0.06606 -0.169942,0.100635 -0.230907,0.07725 -0.06783,-0.02603 -0.110423,0.0019 -0.110423,0.07227 0,0.06319 -0.03359,0.09437 -0.07474,0.06894 -0.04115,-0.02542 -0.155427,0.03967 -0.253345,0.14535 -0.09789,0.105697 -0.207586,0.193107 -0.2442,0.193532 -0.06735,9.53e-4 -0.367466,0.424825 -0.39868,0.563152 -0.0096,0.04138 -0.06397,0.100795 -0.121352,0.132893 -0.05738,0.03212 -0.08696,0.103881 -0.06558,0.159478 0.02138,0.0556 -0.0064,0.148147 -0.05979,0.20516 -0.138551,0.146009 -0.13389,1.654112 0.0064,1.82235 0.05529,0.06672 0.08262,0.169715 0.05979,0.229241 -0.02283,0.05952 0.0064,0.148629 0.06558,0.197687 0.05915,0.04906 0.0884,0.119199 0.06558,0.156151 -0.02283,0.03695 0.01125,0.08734 0.07635,0.112127 0.06461,0.0248 0.117174,0.104122 0.117174,0.176083 0,0.147777 0.799963,0.980954 0.941905,0.980954 0.05063,0 0.133247,0.04841 0.182736,0.10798 0.0495,0.05955 0.133247,0.09202 0.186883,0.07143 0.05369,-0.02059 0.117495,0.0143 0.142087,0.07807 0.02443,0.06368 0.09226,0.09792 0.150284,0.07559 0.05818,-0.02232 0.219834,0.0088 0.359652,0.06977 h 8.27e-4 c 0.336428,0.146765 0.481054,0.147038 0.787409,0.0018 0.140801,-0.06682 0.322653,-0.104219 0.403679,-0.08307 0.08101,0.02119 0.188056,-0.01012 0.237545,-0.06977 0.0495,-0.05965 0.139676,-0.08917 0.201011,-0.06561 0.0614,0.02356 0.173173,-0.01254 0.248347,-0.08058 0.07522,-0.06805 0.184954,-0.105472 0.243364,-0.08307 0.05835,0.02241 0.192606,-0.0042 0.29819,-0.05897 0.105601,-0.05457 0.21146,-0.08008 0.235055,-0.05648 0.02363,0.02361 0.04243,0.0077 0.04243,-0.03491 0,-0.04253 0.08615,-0.06073 0.19103,-0.0407 0.117655,0.0225 0.244762,-0.01318 0.333085,-0.09303 0.0786,-0.07117 0.181016,-0.106035 0.22758,-0.07725 0.04661,0.02879 0.148999,-0.0053 0.22758,-0.07641 0.0786,-0.07111 0.192798,-0.110423 0.253346,-0.08721 0.0606,0.02323 0.149159,-0.0057 0.197684,-0.06396 0.04838,-0.05836 0.144338,-0.101711 0.212632,-0.09634 0.235859,0.01845 0.395433,-0.01382 0.358819,-0.07308 -0.02025,-0.03266 0.100939,-0.06476 0.268277,-0.07143 0.167354,-0.0067 0.36626,-0.06952 0.44272,-0.138712 0.07779,-0.07042 0.205062,-0.108365 0.28906,-0.08639 0.08326,0.02181 0.190902,-0.0093 0.241693,-0.07059 0.05031,-0.06063 0.152213,-0.09485 0.225925,-0.07559 0.07378,0.01927 0.17478,-0.01415 0.225105,-0.07476 0.05031,-0.06063 0.154142,-0.09379 0.230072,-0.07392 0.07603,0.01986 0.179585,-0.006 0.230907,-0.05732 0.05128,-0.05132 0.130997,-0.08093 0.176918,-0.06563 0.04597,0.01527 0.231711,-0.02832 0.412808,-0.09634 0.181128,-0.06804 0.403035,-0.130531 0.493382,-0.139547 0.09033,-0.009 0.21739,-0.06053 0.281571,-0.113799 0.06413,-0.05319 0.164766,-0.07765 0.224269,-0.05483 0.05947,0.02284 0.149159,-0.0077 0.19852,-0.06728 0.0495,-0.05957 0.189213,-0.107979 0.310646,-0.107979 0.121353,0 0.202314,-0.02904 0.180245,-0.06479 -0.02202,-0.03571 0.09789,-0.06479 0.266622,-0.06479 0.168753,0 0.328922,-0.03062 0.355491,-0.06728 0.05626,-0.07758 0.21199,-0.125081 0.424445,-0.130401 0.08262,-0.0021 0.197973,-0.05029 0.255821,-0.107144 0.05787,-0.05688 0.165875,-0.08771 0.240873,-0.0681 0.07506,0.01961 0.178107,-0.01334 0.228416,-0.07392 0.05031,-0.06063 0.15141,-0.09483 0.225105,-0.07559 0.07378,0.01927 0.174764,-0.0135 0.224254,-0.07309 0.0495,-0.05963 0.139836,-0.08909 0.201011,-0.06561 0.06124,0.02351 0.182736,-0.0025 0.269949,-0.05732 0.08712,-0.05492 0.27572,-0.107755 0.418626,-0.11711 0.142891,-0.0093 0.31923,-0.07116 0.392042,-0.137056 0.07603,-0.06873 0.199564,-0.101679 0.289879,-0.07807 0.09982,0.02612 0.173623,-8.5e-5 0.201012,-0.07143 0.02829,-0.07389 0.10094,-0.09842 0.211796,-0.07061 0.104798,0.02633 0.206316,-0.0021 0.266622,-0.07476 0.05353,-0.06452 0.159929,-0.100426 0.235907,-0.08056 0.07603,0.01986 0.17912,-0.0034 0.230072,-0.0515 0.05095,-0.048 0.22594,-0.09621 0.38873,-0.107145 0.162773,-0.01093 0.356632,-0.07458 0.430247,-0.141203 0.07362,-0.06661 0.200192,-0.103495 0.28157,-0.08223 0.09017,0.0236 0.16459,-0.005 0.191046,-0.07392 0.02877,-0.07532 0.108494,-0.100907 0.236726,-0.07641 0.125853,0.02403 0.207746,-0.0013 0.235055,-0.07227 0.02733,-0.07114 0.1011,-0.0938 0.213468,-0.06561 0.09483,0.02377 0.217759,8.26e-4 0.27244,-0.05066 0.05465,-0.05172 0.23258,-0.102869 0.395369,-0.113799 0.162773,-0.01093 0.355989,-0.07476 0.429411,-0.141203 0.07699,-0.06987 0.187639,-0.09985 0.261656,-0.07143 0.07136,0.02741 0.15382,0.0074 0.186047,-0.04486 0.03198,-0.05161 0.136301,-0.09882 0.231743,-0.105489 0.09548,-0.0067 0.308879,-0.0737 0.474272,-0.148677 0.310968,-0.140994 0.358994,-0.157726 0.493383,-0.173595 0.04372,-0.0051 0.05882,-0.04338 0.03327,-0.08472 -0.02556,-0.04133 0.0032,-0.07476 0.06477,-0.07476 0.06156,0 0.165088,-0.05381 0.230072,-0.118781 0.06494,-0.06497 0.117977,-0.09789 0.117977,-0.07309 0,0.0248 0.113637,-0.06545 0.252508,-0.201008 0.138873,-0.135545 0.239989,-0.269736 0.224253,-0.298187 -0.01607,-0.02846 0.01783,-0.07942 0.07474,-0.112962 0.133729,-0.07895 0.313054,-0.409331 0.288223,-0.531587 -0.01125,-0.05224 0.03088,-0.114329 0.09226,-0.137877 0.0614,-0.02354 0.09435,-0.08628 0.07394,-0.139547 -0.02041,-0.05326 0.01607,-0.149191 0.07972,-0.213464 0.06429,-0.06428 0.09644,-0.17048 0.07136,-0.235894 -0.02509,-0.06542 0.0096,-0.202403 0.07555,-0.303998 0.176146,-0.269121 0.17436,-1.581359 -0.0034,-1.680315 -0.08535,-0.04766 -0.111548,-0.131881 -0.08471,-0.27244 0.02539,-0.132653 0.0034,-0.217514 -0.06477,-0.243369 -0.0569,-0.02184 -0.103029,-0.103624 -0.103029,-0.181903 0,-0.07828 -0.03424,-0.142858 -0.07554,-0.142858 -0.04129,0 -0.07474,-0.06056 -0.07474,-0.135385 0,-0.145318 -0.520287,-0.801808 -0.941905,-1.188596 -0.14064,-0.128988 -0.239041,-0.251853 -0.218449,-0.272436 0.02058,-0.02056 -0.07362,-0.135674 -0.209323,-0.255829 -0.135818,-0.120163 -0.428431,-0.437369 -0.650353,-0.705182 -0.575019,-0.693909 -1.056475,-1.201057 -1.140426,-1.201057 -0.0397,0 -0.07233,-0.04759 -0.07233,-0.105488 0,-0.0579 -0.217454,-0.327145 -0.482581,-0.59887 -0.265128,-0.27173 -0.55766,-0.600745 -0.65037,-0.730933 -0.09274,-0.130193 -0.399692,-0.470795 -0.682757,-0.756683 -0.283065,-0.28587 -0.5155,-0.543558 -0.515805,-0.573115 -3.22e-4,-0.02958 -0.276137,-0.34127 -0.612983,-0.692726 -0.336847,-0.351456 -0.615797,-0.656271 -0.619622,-0.67694 -0.0032,-0.02075 -0.03488,-0.02797 -0.06895,-0.01662 -0.03407,0.01141 -0.04324,-0.0093 -0.02074,-0.04568 0.0225,-0.03636 -0.212664,-0.330541 -0.522443,-0.653687 -0.663276,-0.69185 -0.738708,-0.87543 -0.460979,-1.132943 0.107048,-0.09928 0.231551,-0.181073 0.276588,-0.181073 0.045,0 0.165136,-0.0829 0.266622,-0.184397 0.101422,-0.101486 0.184391,-0.162797 0.184391,-0.13622 0,0.0266 0.06895,-0.02539 0.152857,-0.115454 0.0839,-0.09004 0.257717,-0.217607 0.386238,-0.284068 0.128586,-0.06646 0.3047,-0.197644 0.392042,-0.290709 0.08728,-0.09308 0.201654,-0.154046 0.253345,-0.13622 0.05176,0.01784 0.09387,-0.02724 0.09387,-0.09967 0,-0.07235 0.02122,-0.110086 0.04742,-0.08389 0.05963,0.05968 0.704343,-0.396417 0.704343,-0.498361 0,-0.04121 0.02074,-0.0549 0.04565,-0.02991 0.02508,0.02501 0.121514,-0.03607 0.214288,-0.13622 0.09274,-0.100136 0.185598,-0.164912 0.206814,-0.143694 0.02122,0.02122 0.148516,-0.06428 0.282406,-0.189376 0.13389,-0.125098 0.270351,-0.210495 0.303173,-0.190212 0.03279,0.02028 0.07908,-0.01399 0.103029,-0.07641 0.02395,-0.06241 0.128907,-0.14633 0.233399,-0.186057 0.104476,-0.0397 0.19021,-0.106324 0.19021,-0.148677 0,-0.04239 0.04709,-0.07725 0.104636,-0.07725 0.05754,0 0.124728,-0.05333 0.149481,-0.117945 0.02475,-0.06463 0.07715,-0.09724 0.11637,-0.07308 0.03906,0.02416 0.106083,-0.01648 0.148677,-0.08971 0.0426,-0.07323 0.07892,-0.09866 0.08053,-0.05732 0.0016,0.04978 0.02234,0.04923 0.05899,-8.26e-4 0.07185,-0.09835 0.564024,-0.464625 0.639568,-0.475935 0.03215,-0.0048 0.137587,-0.09416 0.234235,-0.198516 0.09676,-0.104363 0.214706,-0.189379 0.26164,-0.189379 0.04694,0 0.0847,-0.03596 0.0847,-0.07974 0,-0.04367 0.02797,-0.06271 0.06237,-0.04153 0.03424,0.02117 0.163592,-0.05269 0.286553,-0.164456 0.12296,-0.111756 0.348257,-0.287851 0.500856,-0.391218 0.152535,-0.103367 0.277956,-0.213209 0.278257,-0.244193 2.95e-4,-0.03099 0.0426,-0.05648 0.09467,-0.05648 0.05208,0 0.195495,-0.09311 0.318117,-0.206822 0.122639,-0.113702 0.240827,-0.206817 0.262477,-0.206817 0.02168,0 0.03054,-0.02365 0.02075,-0.05315 -0.0096,-0.02956 0.0331,-0.0344 0.09467,-0.01077 0.06156,0.02363 0.111226,0.0072 0.111226,-0.03571 0,-0.04298 0.05963,-0.09692 0.132122,-0.120436 0.07233,-0.02353 0.254341,-0.159704 0.404499,-0.302342 0.150124,-0.142649 0.288159,-0.243442 0.307335,-0.224261 0.01914,0.01916 0.19294,-0.103865 0.385404,-0.27327 0.192443,-0.169407 0.350891,-0.27956 0.352162,-0.245028 0.0013,0.03452 0.03713,0.0025 0.07972,-0.07061 0.0426,-0.07325 0.109137,-0.113686 0.147873,-0.08971 0.03874,0.024 0.07056,0.0087 0.07056,-0.03406 0,-0.04272 0.10978,-0.133231 0.244203,-0.201008 0.134372,-0.06778 0.317975,-0.205924 0.407825,-0.307326 0.08985,-0.10139 0.191734,-0.190898 0.225925,-0.19851 0.03424,-0.0076 0.05288,-0.04148 0.04147,-0.07559 -0.01125,-0.03411 0.01125,-0.04161 0.0524,-0.0166 0.09098,0.05623 0.381242,-0.1828 0.381242,-0.313968 0,-0.05283 0.02747,-0.09634 0.06059,-0.09634 0.113477,0 0.921353,-0.83381 0.877132,-0.905361 -0.02429,-0.03933 -0.0096,-0.07143 0.03488,-0.07143 0.04388,0 0.07972,-0.04789 0.07972,-0.105488 0,-0.05759 0.05095,-0.124037 0.112995,-0.147841 0.06204,-0.02381 0.112994,-0.108157 0.112994,-0.187719 0,-0.07958 0.04999,-0.164201 0.111387,-0.18772 0.0614,-0.02352 0.0929,-0.09043 0.07056,-0.148678 -0.02232,-0.05825 0.01125,-0.125885 0.07554,-0.150332 0.07137,-0.02742 0.09772,-0.09237 0.06815,-0.169447 -0.02879,-0.07516 -0.0018,-0.150702 0.06895,-0.190205 0.07185,-0.04025 0.101743,-0.124712 0.07715,-0.218454 -0.02215,-0.08476 0.01286,-0.211276 0.07811,-0.283233 0.16427,-0.181512 0.167867,-1.332059 0.0048,-1.580642 -0.06333,-0.09671 -0.09756,-0.221333 -0.07635,-0.276591 0.02122,-0.05526 -0.01286,-0.120067 -0.07731,-0.14453 -0.0651,-0.02496 -0.09724,-0.094 -0.07313,-0.156987 0.02361,-0.06167 0.0096,-0.112127 -0.0299,-0.112127 -0.04002,0 -0.07313,-0.04279 -0.07313,-0.09469 0,-0.106549 -0.567111,-0.732595 -0.663646,-0.732595 -0.03441,0 -0.105762,-0.08061 -0.158643,-0.179407 -0.05288,-0.0988 -0.176932,-0.216617 -0.275766,-0.261645 z m -0.200174,8.86505 c -0.01625,0.0085 -0.02574,0.03197 -0.02574,0.07392 0,0.03941 -0.121352,0.129711 -0.269949,0.200175 -0.148516,0.07048 -0.286921,0.173149 -0.308154,0.228417 -0.02122,0.05517 -0.06992,0.08202 -0.107208,0.05897 -0.03729,-0.02307 -0.08631,0.0072 -0.109619,0.0681 -0.02331,0.06085 -0.141444,0.151683 -0.262472,0.201838 -0.121031,0.05015 -0.220108,0.121497 -0.220108,0.157822 0,0.03632 -0.05208,0.06561 -0.115405,0.06561 -0.06333,0 -0.134854,0.05093 -0.158643,0.112962 -0.02377,0.06203 -0.08181,0.112963 -0.128746,0.112963 -0.09515,0 -0.899088,0.531391 -0.938596,0.620459 -0.01446,0.0313 -0.05609,0.03752 -0.09387,0.01414 -0.03777,-0.02337 -0.06895,0.01286 -0.06895,0.07974 0,0.06688 -0.03359,0.100184 -0.07474,0.07476 -0.04116,-0.02544 -0.150927,0.03173 -0.244198,0.127091 -0.09323,0.09536 -0.219949,0.184859 -0.28157,0.19851 -0.06172,0.01366 -0.136301,0.0646 -0.16612,0.112963 -0.0299,0.04835 -0.09097,0.08805 -0.135336,0.08805 -0.04436,0 -0.112834,0.05011 -0.152053,0.112126 -0.0392,0.06204 -0.07185,0.08273 -0.07233,0.04568 -4.25e-4,-0.03705 -0.0839,0.02266 -0.185213,0.132073 -0.101422,0.10941 -0.220332,0.198515 -0.264131,0.198515 -0.04388,0 -0.247029,0.109828 -0.45103,0.244199 -0.413724,0.272424 -0.602423,0.558937 -0.416135,0.630429 0.06156,0.02361 0.09258,0.07347 0.06976,0.110471 -0.02283,0.03702 -0.01286,0.06728 0.0225,0.06728 0.03488,0 0.1273,0.109811 0.205978,0.244198 0.07876,0.134371 0.196189,0.286024 0.26082,0.336392 0.06461,0.05037 0.09049,0.09258 0.05738,0.09385 -0.03311,0.0013 0.03054,0.08684 0.142087,0.19021 0.111548,0.103367 0.17695,0.187718 0.145301,0.187718 -0.03166,0 0.03134,0.116355 0.139516,0.258318 0.108333,0.141958 0.196848,0.278567 0.196848,0.303998 0,0.02541 0.08744,0.126722 0.193541,0.225096 0.106083,0.09838 0.198422,0.206853 0.205992,0.240873 0.008,0.03401 0.03857,0.05384 0.06815,0.04403 0.02961,-0.0098 0.03602,0.02732 0.01446,0.08223 -0.02106,0.05491 0.01446,0.142987 0.07811,0.196024 0.06397,0.05304 0.11637,0.127846 0.11637,0.166118 0,0.03825 0.08905,0.152776 0.198504,0.254167 0.109459,0.101406 0.176325,0.184393 0.148677,0.184393 -0.02764,0 0.0048,0.08387 0.07233,0.18689 0.06751,0.103013 0.153017,0.168636 0.189373,0.146186 0.03632,-0.02247 0.04806,0.005 0.02654,0.06063 -0.03904,0.101695 0.296698,0.453346 0.366294,0.383743 0.02041,-0.02044 0.05818,0.03092 0.0847,0.114618 0.03024,0.09539 0.09017,0.136606 0.16025,0.109635 0.06156,-0.02365 0.102547,-0.009 0.09049,0.03322 -0.01125,0.0423 0.008,0.07765 0.04484,0.07807 0.03683,5.96e-4 0.09001,0.03909 0.118781,0.08556 0.02879,0.04645 0.214081,0.142682 0.411973,0.213464 0.303077,0.108398 0.63084,0.127171 2.075695,0.119601 0.943525,-0.005 1.776519,-0.03432 1.851404,-0.06561 0.0749,-0.0313 0.947953,-0.0705 1.940315,-0.08721 1.10558,-0.01861 2.081588,-0.07506 2.519212,-0.145349 0.412008,-0.06619 1.127326,-0.110263 1.69111,-0.104653 0.537519,0.0053 1.129626,-0.03001 1.315686,-0.07808 0.204838,-0.05296 0.664614,-0.0739 1.16534,-0.05315 0.546359,0.02266 1.02994,-0.0034 1.425324,-0.07641 0.329129,-0.06074 0.725028,-0.09297 0.879606,-0.07227 0.175085,0.02348 0.331767,-0.0016 0.416132,-0.06561 0.07459,-0.05648 0.192993,-0.103383 0.263314,-0.104652 0.07024,-0.0013 0.16134,-0.06137 0.201832,-0.13373 0.04048,-0.07236 0.101422,-0.132073 0.135337,-0.132073 0.03387,3e-6 0.05211,-0.02736 0.04067,-0.06146 -0.01125,-0.03406 0.01125,-0.04242 0.05065,-0.01828 0.0876,0.05412 0.397309,-0.325941 0.340543,-0.417794 -0.0225,-0.03649 -0.0051,-0.06645 0.03825,-0.06645 0.04372,0 0.07972,-0.08115 0.07972,-0.181073 0,-0.09993 0.039,-0.195194 0.0863,-0.210972 0.12393,-0.04129 0.11846,-1.557015 -0.006,-1.633802 -0.0508,-0.03139 -0.0834,-0.104347 -0.0731,-0.161967 0.0548,-0.306233 -0.590488,-1.061352 -0.921981,-1.078957 -0.02764,-0.0015 -0.07538,-0.02881 -0.106245,-0.05981 -0.03101,-0.03099 -0.146101,-0.05564 -0.254983,-0.05564 -0.108811,0 -0.238301,-0.04145 -0.288224,-0.09138 -0.06365,-0.0637 -0.376866,-0.08488 -1.049049,-0.07059 -0.660089,0.01399 -1.109374,-0.01479 -1.446091,-0.09385 -0.306208,-0.07191 -0.909709,-0.119649 -1.616347,-0.127091 -2.256113,-0.02374 -2.430385,-0.02987 -2.395472,-0.08638 0.04035,-0.06553 -0.969183,-0.09398 -2.190311,-0.0623 -0.498553,0.01302 -0.961385,-0.01559 -1.16534,-0.07227 -0.186064,-0.05165 -0.654903,-0.09306 -1.041575,-0.09138 -0.714535,0.0034 -0.988422,-0.08934 -0.988422,-0.336393 0,-0.05283 -0.03423,-0.09636 -0.07554,-0.09636 -0.04129,0 -0.06831,-0.02548 -0.0606,-0.05648 0.0225,-0.09064 -0.216182,-0.596841 -0.308154,-0.653687 -0.04613,-0.02858 -0.0667,-0.07964 -0.04565,-0.113799 0.02106,-0.03416 -0.01286,-0.0818 -0.07394,-0.105488 -0.06172,-0.02371 -0.112995,-0.09533 -0.112995,-0.158643 0,-0.06331 -0.03729,-0.114617 -0.0831,-0.114617 -0.04581,0 -0.06365,-0.05093 -0.03984,-0.112963 0.02377,-0.06203 0.01125,-0.112962 -0.02829,-0.112962 -0.0392,0 -0.09274,-0.08466 -0.118781,-0.188548 -0.02602,-0.103898 -0.08776,-0.213706 -0.137104,-0.244199 -0.04934,-0.03048 -0.148838,-0.183001 -0.220944,-0.338056 -0.09081,-0.1955 -0.199579,-0.309621 -0.248345,-0.284066 z m -25.399088,5.727853 c -0.0442,-0.04412 -0.45336,0.458934 -0.431083,0.529925 0.0096,0.03295 -0.0064,0.05103 -0.03825,0.04069 -0.03102,-0.01029 -0.07313,0.01543 -0.09387,0.05648 -0.02074,0.04108 -0.155911,0.194459 -0.300682,0.341377 -0.526911,0.534921 -0.788647,0.854078 -0.764152,0.93194 0.01446,0.04376 -4.67e-4,0.05435 -0.03151,0.02326 -0.07185,-0.0718 -0.342279,0.167518 -0.288225,0.254996 0.02218,0.03583 -0.01125,0.06479 -0.07635,0.06479 -0.06445,0 -0.117173,0.0262 -0.117173,0.05814 0,0.03195 -0.180791,0.25158 -0.401187,0.488396 -0.220395,0.236819 -0.386466,0.431083 -0.369619,0.431083 0.01688,0 -0.07362,0.08723 -0.201011,0.194361 -0.1273,0.107143 -0.2126,0.225708 -0.189375,0.263301 0.0233,0.03758 0.0032,0.06812 -0.04324,0.06812 -0.08904,0 -0.292968,0.177661 -0.320612,0.279084 -0.0096,0.03248 -0.04211,0.05103 -0.07313,0.04069 -0.03102,-0.01029 -0.05642,0.01852 -0.05642,0.06395 0,0.04544 -0.10978,0.186027 -0.2442,0.312311 -0.134372,0.126287 -0.234783,0.260082 -0.223434,0.298187 0.01125,0.03806 -0.01125,0.04953 -0.05144,0.02491 -0.03986,-0.02462 -0.100136,0.0034 -0.133729,0.0623 -0.08326,0.146185 -0.779759,0.94327 -0.953526,1.091411 -0.295184,0.25165 -0.416248,0.409013 -0.371275,0.481751 0.02636,0.04266 0.0096,0.05192 -0.03986,0.0216 -0.04774,-0.02951 -0.08728,-0.02187 -0.08728,0.0166 0,0.03848 -0.213902,0.293401 -0.475944,0.567302 -0.262025,0.273903 -0.459388,0.515732 -0.438556,0.536571 0.02089,0.02083 -0.0048,0.03737 -0.05561,0.03737 -0.143374,0 -0.323844,0.214352 -0.263296,0.31231 0.03151,0.05108 0.02106,0.06658 -0.02491,0.0382 -0.04324,-0.02671 -0.138873,0.04446 -0.212633,0.157823 -0.07378,0.113332 -0.399676,0.469726 -0.724292,0.792395 -0.324596,0.32267 -0.569906,0.618713 -0.545699,0.657837 0.02411,0.03911 -0.0096,0.07143 -0.07394,0.07143 -0.06445,0 -0.117174,0.03529 -0.117174,0.07807 0,0.04279 -0.238991,0.312026 -0.531588,0.59887 -0.29258,0.286845 -0.510324,0.556994 -0.483402,0.600528 0.02684,0.04352 0.0048,0.07032 -0.05063,0.05897 -0.05481,-0.01141 -0.09081,0.02141 -0.08053,0.07309 0.0096,0.05169 -0.03182,0.09387 -0.09387,0.09387 -0.06204,0 -0.112994,0.05266 -0.112994,0.117109 0,0.06447 -0.02556,0.102113 -0.05642,0.08307 -0.03102,-0.01906 -0.140802,0.07892 -0.244185,0.21845 -0.10335,0.139531 -0.229896,0.25455 -0.281586,0.255826 -0.05176,0.0011 -0.09467,0.03507 -0.09467,0.07476 0,0.03965 -0.08503,0.166183 -0.189374,0.28157 -0.611923,0.676529 -0.78741,0.885992 -0.78741,0.939417 0,0.03284 -0.03423,0.05981 -0.07554,0.05981 -0.08438,0 -0.676119,0.607073 -0.676119,0.693555 0,0.03046 -0.205881,0.26741 -0.457652,0.526604 -0.877146,0.903031 -0.970982,1.009059 -0.970982,1.101385 0,0.05108 -0.03343,0.07207 -0.07474,0.04652 -0.04131,-0.02556 -0.07554,-0.01334 -0.07554,0.0274 0,0.04071 -0.304828,0.389021 -0.676954,0.774124 -0.372129,0.385107 -0.676104,0.726 -0.676104,0.757512 0,0.03152 -0.130193,0.184708 -0.28906,0.33972 -0.158964,0.15501 -0.30298,0.315885 -0.319776,0.357986 -0.01672,0.04209 -0.128264,0.151924 -0.247527,0.244199 -0.119263,0.09228 -0.192203,0.167782 -0.16279,0.167782 0.02942,0 -0.05127,0.08805 -0.178589,0.195194 -0.127299,0.107144 -0.211764,0.224878 -0.188538,0.262474 0.02314,0.03759 0.01446,0.06891 -0.01913,0.06894 -0.08004,1.2e-4 -0.474272,0.340596 -0.474272,0.409493 0,0.02943 -0.126496,0.183751 -0.28157,0.343868 -0.571724,0.590377 -0.890744,0.940089 -0.924466,1.013343 -0.01913,0.04134 -0.05947,0.06682 -0.09049,0.05648 -0.03102,-0.01029 -0.05642,0.01798 -0.05642,0.06313 0,0.04513 -0.1535,0.218772 -0.340543,0.386234 -0.187108,0.167443 -0.328022,0.316524 -0.313138,0.331408 0.01446,0.01495 -0.286248,0.356798 -0.669481,0.759176 -0.383217,0.402373 -0.68213,0.745678 -0.664482,0.763319 0.01768,0.01767 -0.03568,0.07966 -0.118781,0.137878 -0.0831,0.05821 -0.13405,0.134421 -0.112994,0.16861 0.02105,0.03419 -0.01446,0.08161 -0.07892,0.106308 -0.06445,0.02472 -0.09837,0.07519 -0.07554,0.112129 0.02283,0.03692 -0.0064,0.107928 -0.06558,0.156986 -0.05915,0.04906 -0.08888,0.136538 -0.06638,0.195192 0.0225,0.05865 -0.0064,0.12506 -0.06317,0.147022 -0.139676,0.05357 -0.132765,1.600263 0.008,1.686961 0.05095,0.03145 0.08455,0.104344 0.07474,0.161962 -0.02539,0.14926 0.137586,0.518303 0.229235,0.518303 0.04243,0 0.07731,0.04544 0.07731,0.101326 0,0.209655 0.749429,0.860498 1.066506,0.926123 0.111065,0.02294 0.221118,0.09093 0.244199,0.151173 0.02572,0.06717 0.09596,0.0921 0.181901,0.06479 0.07699,-0.02447 0.176371,-0.0013 0.220106,0.05147 0.103993,0.125099 1.546932,0.116584 1.699418,-0.01 0.05818,-0.0483 0.134051,-0.07901 0.169444,-0.06894 0.106405,0.03038 0.846028,-0.341381 0.806521,-0.405335 -0.02009,-0.0326 -5e-5,-0.05897 0.04485,-0.05897 0.09258,0 0.469145,-0.32104 0.990913,-0.845552 0.195386,-0.196405 0.376531,-0.357166 0.402858,-0.357166 0.07956,0 0.262459,-0.209045 0.262459,-0.299847 0,-0.04671 0.03424,-0.0646 0.07554,-0.03902 0.04131,0.02555 0.07474,-0.0064 0.07474,-0.07061 0,-0.06447 0.04308,-0.108348 0.09467,-0.09801 0.05159,0.01029 0.08438,-0.02663 0.07313,-0.0814 -0.01125,-0.05478 0.01125,-0.07927 0.05143,-0.05484 0.03954,0.0244 0.124568,-0.03114 0.189391,-0.123765 0.06478,-0.09255 0.117977,-0.148255 0.117977,-0.123764 0,0.02453 0.2451,-0.19434 0.544865,-0.485901 0.29978,-0.29156 0.562416,-0.531933 0.583088,-0.534907 0.02074,-0.0032 0.02797,-0.03317 0.01655,-0.06728 -0.01125,-0.03406 0.008,-0.04423 0.04404,-0.02243 0.03536,0.0218 0.356616,-0.243081 0.714309,-0.588898 0.357693,-0.345817 0.683995,-0.640447 0.725126,-0.654523 0.07137,-0.0244 1.324978,-1.176763 2.009228,-1.847265 0.178702,-0.175104 0.324776,-0.306212 0.324776,-0.291539 0,0.01463 0.181546,-0.146265 0.403661,-0.357993 0.222133,-0.211715 0.51542,-0.469749 0.652027,-0.573118 0.299412,-0.226563 0.366485,-0.292229 0.559829,-0.55152 0.08213,-0.110198 0.17335,-0.200175 0.203503,-0.200178 0.06992,0 0.558351,-0.432824 1.166995,-1.034105 0.261607,-0.258423 0.508635,-0.469289 0.549044,-0.469289 0.04035,0 0.07313,-0.05349 0.07313,-0.117945 0,-0.06447 0.0307,-0.09785 0.06815,-0.07476 0.03745,0.0231 0.377189,-0.262463 0.755022,-0.634579 0.377832,-0.372118 0.719549,-0.676943 0.759185,-0.676943 0.0397,0 0.07137,-0.05266 0.07137,-0.117109 0,-0.06444 0.03006,-0.09887 0.06638,-0.07641 0.07088,0.04378 0.46016,-0.309617 0.46016,-0.417793 0,-0.03571 0.02893,-0.06479 0.06477,-0.06479 0.03584,0 0.268326,-0.195 0.51664,-0.432747 0.248315,-0.237752 0.481152,-0.448625 0.517477,-0.469294 0.03632,-0.02067 0.0577,-0.06368 0.04725,-0.09469 -0.0096,-0.031 0.008,-0.0477 0.04066,-0.03737 0.03263,0.01029 0.146588,-0.06526 0.253346,-0.168614 0.106726,-0.103367 0.40895,-0.373944 0.671955,-0.601358 0.263006,-0.227413 0.623496,-0.5577 0.800703,-0.733425 0.177207,-0.175729 0.340205,-0.319782 0.362145,-0.319782 0.07297,0 0.408661,-0.367819 0.408661,-0.447698 0,-0.04321 0.04211,-0.07014 0.09387,-0.05981 0.05176,0.01029 0.08438,-0.02581 0.07313,-0.08057 -0.01125,-0.05475 0.01125,-0.07927 0.05143,-0.05481 0.03954,0.02445 0.125371,-0.03116 0.190194,-0.123764 0.06477,-0.0926 0.117174,-0.145559 0.117174,-0.117109 0,0.02845 0.232209,-0.175007 0.515805,-0.452679 0.283579,-0.277668 0.579648,-0.544383 0.657844,-0.592222 0.07812,-0.04783 0.133407,-0.126158 0.122156,-0.174429 -0.01125,-0.04824 0.008,-0.07016 0.04324,-0.04817 0.03552,0.02197 0.362628,-0.245861 0.725946,-0.595544 0.363319,-0.349682 0.682612,-0.636242 0.710178,-0.636242 0.02748,0 0.395915,-0.337141 0.818142,-0.750036 0.422227,-0.412894 0.767479,-0.73356 0.767479,-0.711828 0,0.02171 0.04565,-0.0027 0.101422,-0.05483 0.05577,-0.05209 0.08535,-0.15652 0.06558,-0.231737 -0.01961,-0.07524 -0.05095,-0.121031 -0.06976,-0.102161 -0.0188,0.01887 -0.09435,-0.02245 -0.167772,-0.09136 -0.264259,-0.247975 -0.719725,-0.575495 -0.774969,-0.557338 -0.03102,0.01012 -0.05642,-0.01173 -0.05642,-0.04901 0,-0.03732 -0.18505,-0.190466 -0.411152,-0.340547 -0.226117,-0.150092 -0.4378,-0.316184 -0.470124,-0.36879 -0.03231,-0.0526 -0.193442,-0.176924 -0.358819,-0.275761 -0.165393,-0.09883 -0.3286,-0.224261 -0.362145,-0.279084 -0.03359,-0.05479 -0.09242,-0.07964 -0.131157,-0.05564 -0.03874,0.02398 -0.07056,-0.01511 -0.07056,-0.08638 0,-0.07135 -0.02074,-0.109651 -0.04565,-0.08472 -0.0532,0.05322 -0.781591,-0.668979 -0.781591,-0.774952 0,-0.0397 -0.05095,-0.07227 -0.112995,-0.07227 -0.06204,0 -0.104154,-0.02549 -0.09387,-0.05732 0.0096,-0.03181 -0.05738,-0.140013 -0.150284,-0.240048 -0.09306,-0.100023 -0.168624,-0.226516 -0.168624,-0.280742 0,-0.05422 -0.03423,-0.09801 -0.07554,-0.09801 -0.04131,0 -0.06686,-0.02548 -0.05642,-0.05648 0.0096,-0.03101 -0.06478,-0.191771 -0.166952,-0.357162 -0.102226,-0.165392 -0.187269,-0.344443 -0.188555,-0.397857 -0.0015,-0.05341 -0.0397,-0.121079 -0.08471,-0.150348 -0.08037,-0.05237 -0.187156,-0.371031 -0.21596,-0.64289 -0.008,-0.07615 -0.05882,-0.165612 -0.11219,-0.19851 -0.0532,-0.03292 -0.0778,-0.08978 -0.05481,-0.127091 0.04243,-0.06879 -0.08053,-1.235085 -0.1363,-1.290762 z"
       id="path1771"
       inkscape:connector-curvature="0" />
  </g>
</svg>
